<svg class="bg-red-400"  viewBox="0 0 109 99" fill="none" xmlns="http://www.w3.org/2000/svg">
<path d="M0 10.8915C0 8.00286 1.14749 5.23258 3.19003 3.19003C5.23258 1.14749 8.00286 0 10.8915 0H98.0231C100.912 0 103.682 1.14749 105.725 3.19003C107.767 5.23258 108.915 8.00286 108.915 10.8915V70.7945C108.915 73.6831 107.767 76.4534 105.725 78.4959C103.682 80.5384 100.912 81.6859 98.0231 81.6859H10.8915C8.00286 81.6859 5.23258 80.5384 3.19003 78.4959C1.14749 76.4534 0 73.6831 0 70.7945V10.8915ZM98.0231 10.8915H10.8915V70.7945H98.0231V10.8915ZM108.915 92.5774C108.915 94.0217 108.341 95.4068 107.32 96.4281C106.298 97.4494 104.913 98.0231 103.469 98.0231H5.44573C4.00143 98.0231 2.61629 97.4494 1.59502 96.4281C0.573745 95.4068 0 94.0217 0 92.5774C0 91.1331 0.573745 89.748 1.59502 88.7267C2.61629 87.7054 4.00143 87.1317 5.44573 87.1317H103.469C104.913 87.1317 106.298 87.7054 107.32 88.7267C108.341 89.748 108.915 91.1331 108.915 92.5774Z" fill="#0D0D0D"/>
</svg>
