<svg width="20" height="20" viewBox="0 0 20 20" fill="none" xmlns="http://www.w3.org/2000/svg">
<g clip-path="url(#clip0_11_487)">
<path fill-rule="evenodd" clip-rule="evenodd" d="M9.99649 0.5C7.6373 0.501224 5.35547 1.3368 3.55902 2.85732C1.76257 4.37784 0.568631 6.48416 0.190702 8.79963C-0.187228 11.1151 0.275489 13.4887 1.49612 15.4961C2.71676 17.5035 4.6157 19.0137 6.85341 19.7567C7.34709 19.8484 7.53304 19.5424 7.53304 19.2822C7.53304 19.0221 7.52317 18.2678 7.51987 17.4431C4.75529 18.0403 4.17111 16.2765 4.17111 16.2765C3.72022 15.1311 3.06857 14.8301 3.06857 14.8301C2.16679 14.2181 3.13604 14.2296 3.13604 14.2296C4.13491 14.2999 4.65986 15.2489 4.65986 15.2489C5.54518 16.7592 6.98506 16.3223 7.55114 16.0671C7.64 15.4273 7.89836 14.9921 8.18305 14.745C5.97467 14.4963 3.6544 13.6487 3.6544 9.86248C3.64071 8.88055 4.00717 7.93095 4.67796 7.21016C4.57593 6.96146 4.23529 5.95681 4.77504 4.5922C4.77504 4.5922 5.60936 4.32713 7.50836 5.60503C9.13721 5.16212 10.8558 5.16212 12.4846 5.60503C14.382 4.32713 15.2146 4.5922 15.2146 4.5922C15.756 5.95354 15.4154 6.95818 15.3134 7.21016C15.9863 7.93107 16.3535 8.88232 16.3386 9.86576C16.3386 13.6602 14.0134 14.4963 11.8017 14.7401C12.1571 15.0477 12.4747 15.6482 12.4747 16.571C12.4747 17.8931 12.4632 18.9566 12.4632 19.2822C12.4632 19.5457 12.6426 19.8533 13.1461 19.7567C15.3841 19.0136 17.2832 17.5031 18.5039 15.4954C19.7245 13.4877 20.1869 11.1137 19.8086 8.79801C19.4302 6.48233 18.2357 4.37599 16.4386 2.85573C14.6416 1.33548 12.3592 0.500448 9.99977 0.5H9.99649Z" fill="#787474"/>
<path d="M3.82205 14.6877C3.80065 14.7368 3.72167 14.7515 3.65749 14.7172C3.59331 14.6828 3.54559 14.619 3.56863 14.5683C3.59167 14.5175 3.66901 14.5044 3.73319 14.5388C3.79737 14.5732 3.84673 14.6386 3.82205 14.6877Z" fill="#787474"/>
<path d="M4.22521 15.1344C4.19113 15.1514 4.15214 15.1562 4.11492 15.1479C4.07769 15.1395 4.04455 15.1185 4.02116 15.0886C3.95698 15.0198 3.94381 14.9249 3.99317 14.8824C4.04254 14.8399 4.13141 14.8595 4.19559 14.9282C4.25977 14.9969 4.27457 15.0918 4.22521 15.1344Z" fill="#787474"/>
<path d="M4.61682 15.7022C4.55593 15.7447 4.45225 15.7022 4.39466 15.6171C4.37873 15.6018 4.36607 15.5835 4.35742 15.5633C4.34876 15.543 4.3443 15.5213 4.3443 15.4993C4.3443 15.4773 4.34876 15.4555 4.35742 15.4353C4.36607 15.415 4.37873 15.3967 4.39466 15.3815C4.45555 15.3406 4.55922 15.3815 4.61682 15.4649C4.67441 15.5484 4.67606 15.6596 4.61682 15.7022V15.7022Z" fill="#787474"/>
<path d="M5.14841 16.2519C5.0941 16.3125 4.98385 16.2961 4.89334 16.2143C4.80284 16.1325 4.78144 16.0212 4.83574 15.9623C4.89005 15.9034 5.0003 15.9198 5.0941 16C5.1879 16.0801 5.206 16.193 5.14841 16.2519V16.2519Z" fill="#787474"/>
<path d="M5.89378 16.5726C5.86909 16.6495 5.75719 16.6839 5.64529 16.6512C5.53339 16.6184 5.45934 16.5268 5.48073 16.4483C5.50213 16.3697 5.61567 16.3337 5.72922 16.3697C5.84276 16.4057 5.91517 16.4925 5.89378 16.5726Z" fill="#787474"/>
<path d="M6.70678 16.6283C6.70678 16.7084 6.61463 16.7772 6.49615 16.7788C6.37767 16.7804 6.28058 16.715 6.28058 16.6348C6.28058 16.5546 6.37273 16.4859 6.49121 16.4843C6.60969 16.4826 6.70678 16.5465 6.70678 16.6283Z" fill="#787474"/>
<path d="M7.46371 16.5023C7.47852 16.5825 7.39624 16.6659 7.27776 16.6856C7.15927 16.7052 7.0556 16.6577 7.04079 16.5792C7.02598 16.5007 7.11155 16.4156 7.22674 16.3943C7.34193 16.373 7.4489 16.4221 7.46371 16.5023Z" fill="#787474"/>
</g>
<defs>
<clipPath id="clip0_11_487">
<rect width="20" height="20" fill="white"/>
</clipPath>
</defs>
</svg>
